<svg id="Layer_1" enable-background="new 0 0 256 256" height="512" viewBox="0 0 256 256" width="512" xmlns="http://www.w3.org/2000/svg"><g id="Layer_4"><g><path d="m104.7 44.6h-2.1v-2.1c0-1.5-1.3-2.8-2.8-2.8s-2.8 1.3-2.8 2.8v2.1h-2.1c-1.5 0-2.8 1.3-2.8 2.8s1.3 2.8 2.8 2.8h2.1v2.1c0 1.5 1.3 2.8 2.8 2.8s2.8-1.3 2.8-2.8v-2.1h2.1c1.5 0 2.8-1.3 2.8-2.8s-1.3-2.8-2.8-2.8z" fill="#3caadc"/><path d="m245.8 116.6c-4-.7-7.1-3.8-7.9-7.7 0-.1-.1-.2-.2-.1-.1 0-.1.1-.1.1-.8 4-3.9 7-7.9 7.7-.1 0-.2.1-.1.2 0 .1.1.1.1.1 4 .7 7.1 3.8 7.9 7.7 0 .1.1.2.2.1.1 0 .1-.1.1-.1.8-4 3.9-7 7.9-7.7.1 0 .2-.1.1-.2.1 0 0-.1-.1-.1z" fill="#f5c84c"/><path d="m216.9 169.7c-2-.4-3.7-1.9-4.1-4 0 0-.1-.1-.1-.1s-.1 0-.1.1c-.4 2-2 3.6-4.1 4 0 0-.1.1-.1.1s0 .1.1.1c2 .4 3.7 1.9 4.1 4 0 0 .1.1.1.1s.1 0 .1-.1c.4-2 2-3.6 4.1-4 .1 0 .1-.1 0-.2.1 0 .1 0 0 0z" fill="#ef4460"/><circle cx="253" cy="60" fill="#70d6f9" r="3"/><circle cx="87" cy="68" fill="#b2e26d" r="3"/><path d="m96.5 163.2c9.7 3.8 13.5 7.2 22.7 9.7 14.3 3.9 28.6-1.3 28.5 10.5 0 3.5-2.1 6.2-5.4 8.2l.7-.5 34.1-19.2c3.3-1.6 7.2-1.5 10.4.1v-55.2c-.7.2-1.5.4-2.2.4h-99.5c-.8 0-1.5-.1-2.2-.4v46.6c4.4-1 8.7-1.8 12.9-.2z" fill="#3caadc"/><path d="m85.8 86.9h99.4c4.1 0 7.4 3.3 7.4 7.4v15.6c0 4.1-3.3 7.4-7.4 7.4h-99.4c-4.1 0-7.4-3.3-7.4-7.4v-15.6c0-4.1 3.3-7.4 7.4-7.4z" fill="#70d6f9"/><path d="m145.8 86.9c.9-5.6-2.9-11-8.5-11.9s-11 2.9-11.9 8.5c-.2 1.1-.2 2.3 0 3.4z" fill="#fc657e"/><path d="m125.3 86.9c-.7-4.4 1.5-8.8 5.5-10.8l-5.8-4.8c-5.6-4.6-13.8-3.9-18.5 1.7-1.2 1.5-2.1 3.2-2.6 5-.8 3-.5 6.2.8 9z" fill="#ef4460"/><path d="m145.9 85.2c0 .5-.1 1.1-.1 1.6h20.5c1.3-2.8 1.6-6 .8-9-1.9-7-9.1-11.1-16.1-9.3-1.8.5-3.5 1.4-5 2.6l-5.8 4.8c3.5 1.9 5.7 5.4 5.7 9.3z" fill="#ef4460"/><path d="m125.8 86.9h19.4v30.4h-19.4z" fill="#fcdd86"/><path d="m145.2 177.4v-60.1h-19.4v56.9c8.3 1 15.8.2 19.4 3.2z" fill="#f5c84c"/><path d="m191.8 176.2c-3.1-5-9.5-6.8-14.7-4.2l-34.1 19.2-.7.5c3.2-2 5.3-4.6 5.4-8.2.1-11.8-14.2-6.6-28.5-10.5-9.1-2.5-13-6-22.7-9.7-5.8-2.2-11.9.2-18 1.6-2 .4-4.1.7-6.2.7l-12.5.3v47.1c4.9.3 9.8 1.1 14.5 2.4l29.1 8c17.2 4.5 31.7-1.2 47.2-10.1l37.7-23.2c5-3.3 6.6-8.7 3.5-13.9z" fill="#f9d0b4"/><path d="m5.5 149.9h34.1c1.7 0 3 1.4 3 3v73.9c0 1.7-1.4 3-3 3h-34.1c-1.7 0-3-1.4-3-3v-73.9c0-1.6 1.4-3 3-3z" fill="#70d6f9"/><path d="m56.7 155.9h-14.1v66.6h14.1c1.7 0 3-1.4 3-3v-60.6c.1-1.7-1.3-3-3-3z" fill="#edf4fc"/><path d="m206.6 29.9c-5.2-5.2-13.5-5.2-18.7 0-.3.3-.7.3-1 0-5.2-5.2-13.5-5.2-18.7 0-5.2 5.2-5.2 13.5 0 18.7l16.5 16.5c1.5 1.5 3.8 1.5 5.3 0l16.5-16.5c5.3-5.1 5.3-13.5.1-18.7z" fill="#f98fa6"/><path d="m243.3 72.7c-3.8-3.8-9.9-3.8-13.6 0-.2.2-.5.2-.8 0-3.8-3.8-9.9-3.8-13.6 0-3.8 3.8-3.8 9.9 0 13.6l12 12c1.1 1.1 2.8 1.1 3.9 0l12-12c3.9-3.8 3.9-9.9.1-13.6z" fill="#fc657e"/><path d="m221.6 126.3c-2.6-2.6-6.8-2.6-9.4 0-.1.1-.4.1-.5 0-2.6-2.6-6.8-2.6-9.4 0-2.6 2.6-2.6 6.8 0 9.4l8.3 8.3c.7.7 1.9.7 2.7 0l8.3-8.3c2.6-2.6 2.5-6.8 0-9.4z" fill="#ef4460"/><path d="m5.5 232.4h34.1c3.1 0 5.5-2.5 5.5-5.5v-1.9h11.6c3.1 0 5.5-2.5 5.5-5.5v-3.7c3.8.4 7.6 1.1 11.4 2l29.1 8c18 4.7 32.9-1 49.1-10.4l37.7-23.2c6.4-4 8.1-11 4.4-17.2-1-1.7-2.4-3.1-4-4.1v-52.2c3.2-1.7 5.2-5.1 5.2-8.7v-15.7c0-5.5-4.4-9.9-9.9-9.9h-15.5c1.7-8.4-3.7-16.7-12.2-18.4-4.6-1-9.5.3-13.1 3.3l-4.6 3.9c-2.7-1-5.8-1-8.5 0l-4.6-3.9c-6.6-5.5-16.4-4.7-22 1.9-3.1 3.7-4.3 8.5-3.3 13.2h-15.6c-5.5 0-9.9 4.4-9.9 9.9v15.6c0 3.6 2 7 5.2 8.7v43c-1 .3-2.1.5-3.1.8-1.9.4-3.8.6-5.7.7l-9.9.3v-4.4c0-3.1-2.5-5.5-5.5-5.5h-11.7v-.4c0-3.1-2.5-5.5-5.5-5.5h-34.2c-3.1 0-5.5 2.5-5.5 5.5v73.9c0 2.9 2.5 5.4 5.5 5.4zm170.5-62.7c-.1 0-.1.1-.2.1l-25.8 14.5c0-.3 0-.5 0-.8 0-3.3-.9-5.6-2.4-7.2v-56.5h37.4v48.9c-3-.7-6.2-.3-9 1zm-52.7-49.9v51.5c-1.2-.2-2.3-.5-3.5-.8-8.8-2.4-12.7-5.9-22.4-9.6-3.8-1.5-7.6-1.2-11.3-.5v-40.6zm19.4-30.4v25.4h-14.4v-25.4zm-14.4 30.4h14.4v53.7c-3.1-.7-6.3-1.1-9.5-1.2-1.6-.1-3.2-.2-4.9-.3zm61.9-25.5v15.6c0 2.7-2.2 4.9-4.9 4.9h-37.5v-25.4h37.5c2.7 0 4.9 2.2 4.9 4.9zm-42.6-21.2c4.5-3.8 11.2-3.1 15 1.4 1 1.2 1.7 2.6 2.1 4 .5 1.9.5 4-.1 5.9h-16.2c-.2-3.2-1.7-6.3-4-8.5zm-4.3 11.3h-15.6c.5-4.3 4.4-7.4 8.7-6.9 3.7.3 6.5 3.2 6.9 6.9zm-36.9-5.9c1.5-5.7 7.4-9 13-7.5 1.5.4 2.9 1.1 4 2.1l3.3 2.8c-2.4 2.2-3.8 5.3-4 8.5h-16.2c-.6-1.9-.6-4-.1-5.9zm-25.5 15.8c0-2.7 2.2-4.9 4.9-4.9h37.5v25.4h-37.5c-2.7 0-4.9-2.2-4.9-4.9zm-8.6 73.8c9.6-.2 16.7-5 23.3-2.5 9.3 3.6 13.6 7.3 22.9 9.8 4.7 1.2 9.6 1.8 14.4 1.9 9.8.6 12.2 1.2 12.2 6.2 0 2.2-1.2 4-3.5 5.6-.1 0-8 6-28.3 6-1.4 0-2.5 1.1-2.5 2.5s1.1 2.5 2.5 2.5c8.8 0 23.5-1.7 31-6.8l33.9-19.1c4.1-2 9-.6 11.4 3.2 2.4 3.9 1.3 7.9-2.8 10.4l-37.6 23.2c-15.6 9-29.2 14.1-45.3 9.9l-29.1-8c-4.1-1.1-8.4-1.8-12.6-2.2v-42.4zm-15.6-9.7c.3 0 .5.2.5.5v60.6c0 .3-.2.5-.5.5h-11.5v-61.6zm-51.7-5.5c0-.3.2-.5.5-.5h34.1c.3 0 .5.2.5.5v73.9c0 .3-.2.5-.5.5h-34.1c-.3 0-.5-.2-.5-.5z"/><path d="m183 67c2.5 2.4 6.4 2.4 8.9 0l16.5-16.5c6.1-6.1 6.1-16.1 0-22.2-5.7-5.7-14.7-6.2-21-1.1-6.8-5.4-16.7-4.4-22.1 2.4-5 6.3-4.6 15.3 1.1 21zm-13.1-35.3c4.2-4.2 11-4.2 15.2 0 1.3 1.3 3.3 1.3 4.6 0 4.2-4.2 11-4.1 15.2.1s4.2 10.9 0 15.1l-16.5 16.5s0 0-.1 0c-.5.5-1.3.5-1.8 0l-16.5-16.5c-4.2-4.2-4.2-11-.1-15.2z"/><path d="m213.6 88.1 12 12c2.1 2 5.4 2 7.4 0l12-12c4.7-4.7 4.7-12.4 0-17.2-4.2-4.2-10.9-4.7-15.8-1.2-5.4-4-13-2.8-17 2.6-3.4 4.8-2.9 11.5 1.4 15.8zm3.5-13.7c2.8-2.8 7.3-2.8 10.1 0 1.2 1.1 3.1 1.1 4.3 0 2.8-2.8 7.3-2.8 10.1 0 2.8 2.8 2.8 7.3 0 10.1l-12.1 12.1c-.1.1-.3.1-.4 0l-12-12c-2.8-2.9-2.8-7.4 0-10.2z"/><path d="m212 123.3c-4.2-2.7-9.9-1.5-12.7 2.7-2.3 3.6-1.8 8.4 1.2 11.4l8.3 8.3s0 0 .1.1c.8.8 1.9 1.3 3.1 1.2 1.2 0 2.3-.5 3.1-1.3l8.3-8.3c3.6-3.6 3.6-9.4 0-12.9-3-3-7.8-3.5-11.4-1.2zm7.9 10.6-7.9 7.9-7.9-7.9c-1.6-1.6-1.7-4.2-.1-5.9 1.6-1.6 4.2-1.7 5.9-.1 0 0 0 0 .1.1 1.1 1.1 2.9 1.1 4.1 0 1.6-1.6 4.2-1.6 5.9 0 1.5 1.7 1.5 4.3-.1 5.9z"/></g></g></svg>